<svg version="1.1" id="Layer_1" xmlns="http://www.w3.org/2000/svg" xmlns:xlink="http://www.w3.org/1999/xlink" x="0px" y="0px"
	 width="100%" viewBox="0 0 400 400" enable-background="new 0 0 400 400" xml:space="preserve">
<path fill="#FFFFFF" opacity="1.000000" stroke="none" 
	d="
M182.000000,401.000000 
	C121.352135,401.000000 61.204266,401.000000 1.028198,401.000000 
	C1.028198,267.727142 1.028198,134.454254 1.028198,1.090688 
	C134.231155,1.090688 267.462402,1.090688 400.846802,1.090688 
	C400.846802,134.333191 400.846802,267.666565 400.846802,401.000000 
	C328.121002,401.000000 255.310501,401.000000 182.000000,401.000000 
M302.459564,130.032913 
	C299.862000,134.481400 297.264465,138.929886 294.303925,144.000000 
	C280.127045,144.000000 264.952454,144.512680 249.827469,143.865677 
	C232.305450,143.116135 217.189102,158.682922 216.964630,176.547775 
	C216.878830,183.377411 213.779755,188.800293 207.250900,191.065353 
	C203.825653,192.253677 199.725586,192.131088 196.061279,191.634201 
	C194.863907,191.471832 193.976044,188.306076 193.123962,186.433212 
	C186.798553,172.530304 170.577164,164.960648 155.698837,168.638397 
	C144.953354,171.294525 137.332306,177.302597 132.752045,187.439484 
	C131.911194,189.300415 129.674545,191.682617 127.951454,191.793533 
	C120.498970,192.273285 112.997940,191.998962 105.624825,191.998962 
	C99.112473,172.598038 83.388756,165.473251 67.147652,168.301819 
	C52.596817,170.836029 43.164822,180.572952 40.531197,195.219696 
	C38.265900,207.817993 42.204483,218.772659 52.553246,227.119690 
	C68.824387,240.243469 95.371971,235.647034 104.670532,213.346619 
	C105.837456,210.548035 107.088867,209.924255 109.665070,209.969452 
	C115.329529,210.068817 121.002098,210.144592 126.661110,209.942734 
	C129.765747,209.832001 130.942734,210.887115 132.197388,213.917450 
	C139.968979,232.687820 159.474747,238.321152 176.525650,231.687698 
	C186.442581,227.829620 192.231018,219.748154 195.610916,210.114700 
	C210.709564,209.643478 215.474594,214.328201 217.158493,228.434525 
	C218.675369,241.141647 224.387939,251.885376 237.529541,256.009735 
	C244.776306,258.284058 252.554871,258.863831 260.632599,260.303589 
	C265.830444,275.754395 280.282898,285.268677 297.643860,283.154144 
	C316.051147,280.912140 328.730743,263.070374 325.789032,245.140030 
	C323.153992,229.078842 311.806030,219.085556 297.298981,217.184784 
	C282.847778,215.291321 269.099182,220.815887 262.768951,236.046371 
	C260.419067,241.700134 257.252441,242.445755 252.339355,242.015961 
	C243.583221,241.250000 235.753922,236.984360 234.912521,227.295547 
	C234.075882,217.661667 231.997498,208.436096 224.016113,201.626282 
	C230.045273,194.412201 233.896378,186.865509 234.348282,177.150864 
	C234.792572,167.600296 241.318619,161.286560 249.182510,161.109253 
	C264.653320,160.760391 280.137543,161.006546 295.489990,161.006546 
	C301.361847,178.705261 314.924011,187.428177 332.988953,184.969925 
	C352.928528,182.256561 363.566986,165.013824 360.736603,146.886658 
	C358.672211,133.665359 350.615936,124.460907 337.767120,120.469124 
	C324.547791,116.362236 312.837799,119.818932 302.459564,130.032913 
z"/>
<path fill="#FF6D5A" opacity="1.000000" stroke="none" 
	d="
M302.720703,129.778503 
	C312.837799,119.818932 324.547791,116.362236 337.767120,120.469124 
	C350.615936,124.460907 358.672211,133.665359 360.736603,146.886658 
	C363.566986,165.013824 352.928528,182.256561 332.988953,184.969925 
	C314.924011,187.428177 301.361847,178.705261 295.489990,161.006546 
	C280.137543,161.006546 264.653320,160.760391 249.182510,161.109253 
	C241.318619,161.286560 234.792572,167.600296 234.348282,177.150864 
	C233.896378,186.865509 230.045273,194.412201 224.016113,201.626282 
	C231.997498,208.436096 234.075882,217.661667 234.912521,227.295547 
	C235.753922,236.984360 243.583221,241.250000 252.339355,242.015961 
	C257.252441,242.445755 260.419067,241.700134 262.768951,236.046371 
	C269.099182,220.815887 282.847778,215.291321 297.298981,217.184784 
	C311.806030,219.085556 323.153992,229.078842 325.789032,245.140030 
	C328.730743,263.070374 316.051147,280.912140 297.643860,283.154144 
	C280.282898,285.268677 265.830444,275.754395 260.632599,260.303589 
	C252.554871,258.863831 244.776306,258.284058 237.529541,256.009735 
	C224.387939,251.885376 218.675369,241.141647 217.158493,228.434525 
	C215.474594,214.328201 210.709564,209.643478 195.610916,210.114700 
	C192.231018,219.748154 186.442581,227.829620 176.525650,231.687698 
	C159.474747,238.321152 139.968979,232.687820 132.197388,213.917450 
	C130.942734,210.887115 129.765747,209.832001 126.661110,209.942734 
	C121.002098,210.144592 115.329529,210.068817 109.665070,209.969452 
	C107.088867,209.924255 105.837456,210.548035 104.670532,213.346619 
	C95.371971,235.647034 68.824387,240.243469 52.553246,227.119690 
	C42.204483,218.772659 38.265900,207.817993 40.531197,195.219696 
	C43.164822,180.572952 52.596817,170.836029 67.147652,168.301819 
	C83.388756,165.473251 99.112473,172.598038 105.624825,191.998962 
	C112.997940,191.998962 120.498970,192.273285 127.951454,191.793533 
	C129.674545,191.682617 131.911194,189.300415 132.752045,187.439484 
	C137.332306,177.302597 144.953354,171.294525 155.698837,168.638397 
	C170.577164,164.960648 186.798553,172.530304 193.123962,186.433212 
	C193.976044,188.306076 194.863907,191.471832 196.061279,191.634201 
	C199.725586,192.131088 203.825653,192.253677 207.250900,191.065353 
	C213.779755,188.800293 216.878830,183.377411 216.964630,176.547775 
	C217.189102,158.682922 232.305450,143.116135 249.827469,143.865677 
	C264.952454,144.512680 280.127045,144.000000 294.303925,144.000000 
	C297.264465,138.929886 299.862000,134.481400 302.720703,129.778503 
M149.407104,193.135452 
	C146.929214,198.331039 145.636215,203.302139 149.242538,208.817169 
	C153.076431,214.680206 159.957825,218.330414 166.290146,216.833008 
	C173.466660,215.135986 178.747192,208.914322 178.999100,201.858948 
	C179.288162,193.763092 175.362274,188.682541 166.653320,185.882065 
	C160.569794,183.925827 153.859161,186.615906 149.407104,193.135452 
M74.349419,216.999878 
	C83.573639,216.238297 89.467369,208.988327 88.999153,198.979019 
	C88.663353,191.800415 80.757095,184.698120 73.154510,185.035812 
	C64.263557,185.430725 57.971420,192.449722 57.139435,200.843170 
	C56.347374,208.833862 64.834274,216.776443 74.349419,216.999878 
M289.144073,265.953918 
	C299.378845,267.122314 305.145020,261.953125 307.754272,255.589417 
	C310.094147,249.882797 308.710022,242.936295 302.262634,237.769821 
	C297.543945,233.988617 292.495667,232.997421 286.809692,235.611374 
	C281.174805,238.201859 277.480133,242.037491 276.973907,248.536682 
	C276.291809,257.293854 281.185120,262.239624 289.144073,265.953918 
M339.543518,142.034561 
	C334.797150,135.965866 327.018555,134.752060 320.634308,138.067413 
	C312.659546,142.208740 309.483856,152.060684 313.952759,159.840286 
	C318.685577,168.079315 329.602203,170.711243 336.982208,165.505417 
	C343.546814,160.874786 346.120514,147.892792 339.543518,142.034561 
z"/>
<path fill="#FFFFFF" opacity="1.000000" stroke="none" 
	d="
M149.672577,192.859070 
	C153.859161,186.615906 160.569794,183.925827 166.653320,185.882065 
	C175.362274,188.682541 179.288162,193.763092 178.999100,201.858948 
	C178.747192,208.914322 173.466660,215.135986 166.290146,216.833008 
	C159.957825,218.330414 153.076431,214.680206 149.242538,208.817169 
	C145.636215,203.302139 146.929214,198.331039 149.672577,192.859070 
z"/>
<path fill="#FFFFFF" opacity="1.000000" stroke="none" 
	d="
M73.923637,216.999939 
	C64.834274,216.776443 56.347374,208.833862 57.139435,200.843170 
	C57.971420,192.449722 64.263557,185.430725 73.154510,185.035812 
	C80.757095,184.698120 88.663353,191.800415 88.999153,198.979019 
	C89.467369,208.988327 83.573639,216.238297 73.923637,216.999939 
z"/>
<path fill="#FFFFFF" opacity="1.000000" stroke="none" 
	d="
M288.743744,265.852814 
	C281.185120,262.239624 276.291809,257.293854 276.973907,248.536682 
	C277.480133,242.037491 281.174805,238.201859 286.809692,235.611374 
	C292.495667,232.997421 297.543945,233.988617 302.262634,237.769821 
	C308.710022,242.936295 310.094147,249.882797 307.754272,255.589417 
	C305.145020,261.953125 299.378845,267.122314 288.743744,265.852814 
z"/>
<path fill="#FFFFFF" opacity="1.000000" stroke="none" 
	d="
M339.799744,142.302704 
	C346.120514,147.892792 343.546814,160.874786 336.982208,165.505417 
	C329.602203,170.711243 318.685577,168.079315 313.952759,159.840286 
	C309.483856,152.060684 312.659546,142.208740 320.634308,138.067413 
	C327.018555,134.752060 334.797150,135.965866 339.799744,142.302704 
z"/>
</svg>